Coordinates
version=1
nRows=21
nColumns=12
inDegrees=yes

Units are S.I. units (second, meters, Newtons, ...)
Angles are in degrees

endheader
time	SC_y	SC_z	SC_x	AC_y	AC_z	AC_x	GH_y	GH_z	GH_yy	EL_x	PS_y
       0.0              -41.15          24.21          41.01          39.05         -6.458         -15.72         -120.8          4.595         -38.15          116.4          51.88
    0.0107              -41.15          24.21          41.02          39.05         -6.459         -15.72         -120.8            4.6         -38.15          116.3          51.88
    0.0214              -41.15          24.21          41.02          39.06          -6.46         -15.72         -120.8          4.607         -38.15          116.3          51.88
    0.0321              -41.15           24.2          41.02          39.06          -6.46         -15.72         -120.8          4.614         -38.15          116.3          51.88
    0.0428              -41.14           24.2          41.02          39.06         -6.461         -15.72         -120.8          4.621         -38.14          116.3          51.88
    0.0535              -41.14           24.2          41.02          39.07         -6.462         -15.72         -120.8          4.628         -38.14          116.3          51.88
    0.0642              -41.14          24.19          41.02          39.07         -6.462         -15.72         -120.8          4.637         -38.14          116.3          51.87
    0.0749              -41.14          24.19          41.03          39.08         -6.463         -15.72         -120.8          4.645         -38.13          116.3          51.87
    0.0856              -41.14          24.18          41.03          39.08         -6.464         -15.72         -120.8          4.655         -38.13          116.3          51.87
    0.0963              -41.13          24.18          41.03          39.09         -6.465         -15.72         -120.8          4.665         -38.13          116.3          51.87
     0.107              -41.13          24.18          41.03          39.09         -6.466         -15.72         -120.8          4.676         -38.12          116.3          51.87
    0.1177              -41.13          24.17          41.03           39.1         -6.467         -15.72         -120.8          4.687         -38.12          116.2          51.86
    0.1284              -41.13          24.16          41.04           39.1         -6.468         -15.72         -120.9            4.7         -38.11          116.2          51.86
    0.1391              -41.13          24.16          41.04          39.11         -6.469         -15.72         -120.9          4.713         -38.11          116.2          51.86
    0.1498              -41.12          24.15          41.04          39.12         -6.471         -15.72         -120.9          4.728          -38.1          116.2          51.86
    0.1605              -41.12          24.14          41.05          39.13         -6.472         -15.72         -120.9          4.744          -38.1          116.2          51.85
    0.1712              -41.12          24.14          41.05          39.14         -6.474         -15.72         -120.9          4.761         -38.09          116.2          51.85
    0.1819              -41.11          24.13          41.05          39.14         -6.475         -15.72         -120.9           4.78         -38.08          116.1          51.85
    0.1926              -41.11          24.12          41.06          39.16         -6.477         -15.72         -120.9          4.801         -38.08          116.1          51.84
    0.2033               -41.1          24.11          41.06          39.17         -6.479         -15.72         -120.9          4.823         -38.07          116.1          51.84
     0.214               -41.1           24.1          41.07          39.18         -6.481         -15.72         -120.9          4.848         -38.06          116.1          51.83
